<?xml version="1.0" encoding="UTF-8"?>
<svg width="57px" height="51px" viewBox="0 0 57 51" version="1.1" xmlns="http://www.w3.org/2000/svg" xmlns:xlink="http://www.w3.org/1999/xlink">
    <!-- Generator: Sketch 44.1 (41455) - http://www.bohemiancoding.com/sketch -->
    <defs>
        <polygon id="path-1" points="0.239007752 0.349414286 31.4521964 0.349414286 31.4521964 30.948932 0.239007752 30.948932"></polygon>
    </defs>
    <g id="Symbols" stroke="none" stroke-width="1" fill="none" fill-rule="evenodd">
        <g id="Header---Desktop" transform="translate(-30.000000, -20.000000)">
            <g id="Group-2">
                <g id="Page-1" transform="translate(30.000000, 20.000000)">
                    <g id="Group-3" transform="translate(10.900000, 0.260284)">
                        <mask id="mask-2" fill="white">
                            <use xlink:href="#path-1"></use>
                        </mask>
                        <g id="Clip-2"></g>
                        <path d="M16.7304069,7.91276829 C18.9508783,1.83295971 13.2396454,-1.02547457 8.57778257,0.988729714 C3.80320543,3.05252829 1.701084,7.44838543 0.805005429,10.5874783 C-1.90690029,20.0881654 5.306814,32.1508483 18.5766669,30.8523797 C23.2655811,30.3925054 27.8214926,27.3526011 29.844714,23.8347883 C34.1549083,16.3392883 29.8018826,4.73760686 16.7304069,7.91276829 M15.666384,20.7295097 C12.6061911,16.9355469 16.0405954,9.883014 16.0405954,9.883014 C25.1963769,7.38864686 28.6724854,12.3041169 28.5620254,16.8532654 C28.4211326,22.6512883 20.360934,26.5500754 15.666384,20.7295097 M7.28156829,7.82485114 C8.31515829,9.53923543 10.0340511,10.5074511 13.307274,10.2414454 C13.307274,10.2414454 6.89495829,21.2716654 15.595374,26.183754 C14.1030369,26.1826269 11.295324,25.789254 8.85956829,24.2957897 C3.96438686,21.2953354 1.63120114,16.3178726 2.44499829,10.8782811 C2.89810971,7.85077543 4.912314,4.22475686 7.48558114,2.62083257 C6.40126971,3.84941829 6.54892543,6.61091829 7.28156829,7.82485114 M14.1932083,8.30952257 C10.7599311,8.78743114 9.21349114,7.23535543 8.912544,6.198384 C7.92178543,2.77074257 11.4891926,1.251354 13.8156154,3.20581971 C15.5897383,4.69590257 14.4321626,7.78765543 14.1932083,8.30952257" id="Fill-1" fill="#ED7703" mask="url(#mask-2)"></path>
                    </g>
                    <path d="M40.666236,30.758596 L40.477156,30.758596 L40.477156,29.417636 L40.786876,29.417636 L41.203316,30.469756 L41.606996,29.417636 L41.916716,29.417636 L41.916716,30.758596 L41.727636,30.758596 L41.727636,29.596276 L41.720676,29.596276 L41.255516,30.758596 L41.137196,30.758596 L40.672036,29.592796 L40.666236,29.592796 L40.666236,30.758596 Z M40.261396,29.592796 L39.831036,29.592796 L39.831036,30.758596 L39.643116,30.758596 L39.643116,29.592796 L39.212756,29.592796 L39.212756,29.417636 L40.261396,29.417636 L40.261396,29.592796 Z" id="Fill-4" fill="#ED7703"></path>
                    <path d="M55.472012,39.834668 L55.472012,40.288228 L55.785212,40.288228 C56.020692,40.288228 56.087972,40.201228 56.087972,40.055068 C56.087972,39.875268 55.931372,39.834668 55.778252,39.834668 L55.472012,39.834668 Z M55.472012,41.023668 L55.301492,41.023668 L55.301492,39.681548 L55.814212,39.681548 C56.118132,39.681548 56.260812,39.812628 56.260812,40.062028 C56.260812,40.298668 56.105372,40.403068 55.922092,40.436708 L56.310692,41.023668 L56.108852,41.023668 L55.737652,40.439028 L55.472012,40.439028 L55.472012,41.023668 Z M55.731852,39.384588 C55.183172,39.384588 54.770212,39.806828 54.770212,40.353188 C54.770212,40.911148 55.183172,41.327588 55.731852,41.327588 C56.274732,41.327588 56.687692,40.911148 56.687692,40.353188 C56.687692,39.806828 56.274732,39.384588 55.731852,39.384588 L55.731852,39.384588 Z M54.585772,40.353188 C54.585772,39.722148 55.105452,39.221028 55.731852,39.221028 C56.352452,39.221028 56.869812,39.722148 56.869812,40.353188 C56.869812,40.990028 56.352452,41.492308 55.731852,41.492308 C55.105452,41.492308 54.585772,40.990028 54.585772,40.353188 L54.585772,40.353188 Z" id="Fill-6" fill="#ED7703"></path>
                    <polygon id="Fill-8" fill="#ED7703" points="14.78942 39.68178 8.28878 39.68178 7.98486 41.0239 10.76422 41.0239 10.76422 50.48254 12.1945 50.31318 12.1945 41.0239 15.1003 41.0239"></polygon>
                    <polygon id="Fill-10" fill="#ED7703" points="41.076296 44.97312 45.009856 40.4584 43.925256 39.542 39.903536 44.17504 39.904696 39.58376 38.472096 39.73804 38.472096 50.48544 39.904696 50.31492 39.904696 45.76424 44.158416 50.50516 45.312616 49.58876"></polygon>
                    <polygon id="Fill-12" fill="#ED7703" points="32.25728 44.97312 36.19084 40.4584 35.10624 39.542 31.08452 44.17504 31.08568 39.58376 29.65308 39.73804 29.65308 50.48544 31.08568 50.31492 31.08568 45.76424 35.3394 50.50516 36.4936 49.58876"></polygon>
                    <path d="M25.920896,45.035412 C25.920896,47.438932 23.904816,49.470092 21.517536,49.470092 C19.130256,49.470092 17.114176,47.438932 17.114176,45.035412 C17.114176,42.631892 19.130256,40.601892 21.517536,40.601892 C23.904816,40.601892 25.920896,42.631892 25.920896,45.035412 M21.517536,39.230772 C18.282296,39.230772 15.650256,41.834972 15.650256,45.035412 C15.650256,48.235852 18.282296,50.840052 21.517536,50.840052 C24.752776,50.840052 27.383656,48.235852 27.383656,45.035412 C27.383656,41.834972 24.752776,39.230772 21.517536,39.230772" id="Fill-14" fill="#ED7703"></path>
                    <polygon id="Fill-16" fill="#ED7703" points="48.755612 49.047852 48.755612 45.717492 52.609132 45.717492 52.609132 44.376532 48.755612 44.376532 48.755612 41.024132 53.112572 41.024132 52.728612 39.682012 47.325332 39.682012 47.325332 50.389972 53.184492 50.389972 53.516252 49.047852"></polygon>
                    <path d="M3.764316,44.22202 C2.637956,43.8427 1.749396,43.54342 1.770276,42.34282 C1.795796,40.62486 3.425596,40.57498 3.612356,40.57498 L3.663396,40.57614 C4.713196,40.61326 5.430076,41.4647 5.626116,41.72802 L6.543676,40.67474 C6.207276,40.23974 5.348876,39.35118 3.876836,39.22706 C3.801436,39.2201 3.716756,39.21778 3.625116,39.21778 C3.362956,39.21778 2.439596,39.26302 1.604396,39.84534 C0.814436,40.39402 0.385236,41.24894 0.363196,42.31266 C0.316796,44.55146 1.892076,45.08042 3.157636,45.50614 C4.270076,45.88198 5.230556,46.20678 5.317556,47.4155 C5.387156,48.39454 4.938236,49.12186 4.085636,49.4107 C3.858276,49.48842 3.628596,49.52786 3.402396,49.52786 C1.998796,49.52786 1.124156,48.0071 1.114876,47.99086 L0.974516,47.74494 L0.000116,48.85854 L0.074356,48.98266 C0.085956,49.00238 1.207676,50.83982 3.294516,50.83982 L3.311916,50.83982 C4.367516,50.83518 5.305956,50.4489 5.954396,49.75522 C6.537876,49.12998 6.830196,48.30986 6.775676,47.4445 C6.632996,45.18598 5.108756,44.67442 3.764316,44.22202" id="Fill-18" fill="#ED7703"></path>
                </g>
            </g>
        </g>
    </g>
</svg>
